<svg id="Ebene_1" data-name="Ebene 1" xmlns="http://www.w3.org/2000/svg" viewBox="0 0 247.25 221.1"><title>LowPolyReviews_branding_logo</title><path d="M245.57,112.13a19.71,19.71,0,0,0-6.68-5.11,23.28,23.28,0,0,0-10.29-2H212.9v41h15.55A23.41,23.41,0,0,0,239,143.86a19,19,0,0,0,6.68-5.26,19.72,19.72,0,0,0,3.46-6.75,24.43,24.43,0,0,0,1-6.6,23.63,23.63,0,0,0-1-6.52A18.44,18.44,0,0,0,245.57,112.13Z" transform="translate(-17.51 -31.1)"/><path d="M261.53,157.5l-.5-10.18a36.16,36.16,0,0,1-3.05,3.93,28.73,28.73,0,0,1-8,6.2q5.91,9.3,12.79,20.49Z" transform="translate(-17.51 -31.1)"/><path d="M258,202.85q-3.14-4.87-6.52-10.21T244.71,182q-3.38-5.26-6.6-10.37t-6-9.5H212.9v40.68H195.62V89h31.1a54.28,54.28,0,0,1,16.41,2.36,36.47,36.47,0,0,1,12.88,7,31.68,31.68,0,0,1,2.76,2.67l-.18-3.74L256,63.83l-57-29L140.79,46.54,83,31.1,26.37,42.86,22,89H32.57v97.55H89.12v16.34H17.51l3.54,48,56.22,1.41,60.43-16.87,65.21,13.49,61.84-5.9-1-40.09Zm-83.25-64.48a32.61,32.61,0,0,1-6.6,11.94,33.62,33.62,0,0,1-11.94,8.56q-7.39,3.3-17.91,3.3h-16v40.68H105V89h31.1a54.28,54.28,0,0,1,16.41,2.36,36.47,36.47,0,0,1,12.88,7,31.72,31.72,0,0,1,8.4,11.31,37.23,37.23,0,0,1,3,15.32A45.75,45.75,0,0,1,174.73,138.36Z" transform="translate(-17.51 -31.1)"/><path d="M154.94,112.13a19.71,19.71,0,0,0-6.68-5.11A23.28,23.28,0,0,0,138,105H122.26v41h15.55a22.67,22.67,0,0,0,10.52-2.2,19.21,19.21,0,0,0,10.13-12.1,24,24,0,0,0,1-6.44,23.63,23.63,0,0,0-1-6.52A18.44,18.44,0,0,0,154.94,112.13Z" transform="translate(-17.51 -31.1)"/></svg>