<?xml version="1.0" encoding="utf-8"?>
<!-- Generator: Adobe Illustrator 21.0.2, SVG Export Plug-In . SVG Version: 6.00 Build 0)  -->
<svg version="1.1" id="Ebene_1" xmlns="http://www.w3.org/2000/svg" xmlns:xlink="http://www.w3.org/1999/xlink" x="0px" y="0px"
	 viewBox="0 0 283.5 283.5" style="enable-background:new 0 0 283.5 283.5;" xml:space="preserve">
<style type="text/css">
	.st0{fill:#010202;}
</style>
<g>
	<g>
		<path class="st0" d="M139.6,106.6h-18.8v41.7h18.5c5.1,0,9.1-1.7,11.9-5c2.8-3.4,4.2-8.3,4.2-14.7c0-6.7-1.4-12-4.3-15.9
			C148.3,108.7,144.4,106.7,139.6,106.6z"/>
		<path class="st0" d="M243.6,106.6h-15.8v39.8h15.3c5.4,0,9.4-1.8,12.1-5.4c2.7-3.6,4-8.4,4-14.4
			C259.3,113.3,254,106.6,243.6,106.6z"/>
	</g>
	<path class="st0" d="M241.2,168.9h-13.4v48.8h-27V84.1h43c4.9,0,9.3,0.5,13.4,1.4l-1.6-21.3l-57.1-29.1l-58.4,11.8L82.3,31.5
		L25.6,43.2l-3.9,40.9h9.1v111.2h47.4v22.4H17.8l2.5,33.8l56.3,1.4l60.5-16.9l65.3,13.5l61.9-5.9l-0.5-19.5L241.2,168.9z
		 M171.1,159.4c-7.8,7.6-18.5,11.4-32.3,11.4h-18v47h-27V84.1h45.5c13.2,0,23.8,4.1,31.6,12.3c7.9,8.2,11.8,18.8,11.8,31.9
		C182.7,141.4,178.8,151.8,171.1,159.4z"/>
</g>
</svg>
